<svg width="1040" height="1042" viewBox="0 0 1040 1042" fill="none" xmlns="http://www.w3.org/2000/svg">
<path d="M513.333 33.3332V66.6665H519.333H525.333V33.3332V-0.000167847H519.333H513.333V33.3332Z" fill="black"/>
<path d="M463.067 9.59978C463.467 13.4664 464.267 21.8664 464.8 28.2664C465.733 39.7331 466.533 41.3331 470.267 38.9331C471.6 38.1331 471.6 34.2664 470.267 20.6664C468.667 3.86645 468.533 3.33311 465.467 2.93312C462.4 2.39978 462.267 2.66645 463.067 9.59978Z" fill="black"/>
<path d="M568.933 19.5999C566.133 40.1333 566.133 38.2666 569.333 39.0666C572.267 39.8666 571.867 41.0666 575.333 18.6666C577.867 2.39992 577.867 2.66659 574.267 2.66659C571.333 2.66659 571.067 3.46659 568.933 19.5999Z" fill="black"/>
<path d="M410.8 11.8669C409.2 12.9336 409.333 15.3335 411.867 28.2669C416.133 49.8669 415.867 49.3336 419.867 46.8002C421.467 45.7336 421.333 43.3336 418.8 30.4002C414.533 8.80022 414.8 9.33355 410.8 11.8669Z" fill="black"/>
<path d="M624.667 12.2665C624.4 13.1998 622.533 20.2665 620.667 27.9999C618.8 35.7332 616.933 42.9332 616.533 44.1332C616.133 45.7332 616.933 46.5332 619.2 46.9332C622.4 47.5999 622.533 47.0665 626.8 30.2665C630.267 15.9998 630.8 12.7998 629.2 11.8665C626.667 10.2665 625.333 10.3998 624.667 12.2665Z" fill="black"/>
<path d="M671.6 41.0667C668.267 50.2667 665.733 58.2667 666.133 58.9333C666.533 59.4667 667.867 60 669.2 60C671.067 60 672.933 56.5333 677.067 44.9333C684 26 683.867 26.6667 680.533 25.3333C678 24.4 677.333 25.6 671.6 41.0667Z" fill="black"/>
<path d="M356.933 26.2664C356.4 27.1997 365.867 59.7331 367.067 60.7997C367.2 61.0664 368.667 60.9331 370.267 60.5331C372.8 59.8664 372.933 59.4664 371.333 54.2664C362.8 26.1331 362.533 25.3331 360 25.3331C358.667 25.3331 357.2 25.7331 356.933 26.2664Z" fill="black"/>
<path d="M307.733 44.9334C306.4 45.2001 305.333 46.0001 305.467 46.4001C305.467 46.9334 308.667 54.5334 312.533 63.3334C318.267 76.6667 320 79.2001 322.133 78.9334C323.467 78.6667 324.933 78.1334 325.2 77.8667C325.867 77.3334 311.6 44.0001 310.667 44.1334C310.267 44.2667 308.933 44.5334 307.733 44.9334Z" fill="black"/>
<path d="M720.667 59.9998C714 73.4665 713.067 76.2665 714.667 77.3332C715.733 77.9998 717.067 78.6665 717.6 78.6665C718.267 78.6665 722.267 71.3332 726.8 62.5332C734.8 46.3998 735.2 44.1332 730 43.9998C729.2 43.9998 725.067 51.1998 720.667 59.9998Z" fill="black"/>
<path d="M259.733 69.4666C256.933 70.9332 254.667 72.3999 254.667 72.7999C254.667 73.1999 262 86.3999 271.067 102L287.333 130.4L292.4 127.6C295.067 126.133 297.333 124.267 297.333 123.6C297.333 122.267 268.933 72.3999 266.133 68.7999C264.933 67.0666 264 67.1999 259.733 69.4666Z" fill="black"/>
<path d="M767.6 78.9335C763.6 85.7335 756.133 98.6668 750.933 107.6L741.467 123.867L745.867 126.667C748.267 128.133 750.933 129.333 751.733 129.333C752.933 129.333 785.333 74.8002 785.333 72.8002C785.333 72.4002 782.933 70.8002 780 69.3335L774.8 66.6668L767.6 78.9335Z" fill="black"/>
<path d="M552.4 95.6C552 96.6667 552.667 99.3333 553.867 101.467C557.067 106.8 558 118.267 556 126.533C554.4 133.467 552.667 135.6 540.8 146.4C537.333 149.6 534.667 152.4 534.933 152.667C536 153.867 548 149.333 559.467 143.6C572.133 137.2 579.333 130.667 580.8 124.267C581.2 122.267 581.867 119.867 582.133 118.8C583.067 116 580.267 107.333 577.333 103.6C572.133 96.9333 554.133 91.2 552.4 95.6Z" fill="black"/>
<path d="M481.067 95.8666C469.6 96.6666 465.467 98.2666 467.333 101.333C467.867 102.133 469.733 103.333 471.467 104L474.667 105.333V136.533V167.867L470.667 170C461.6 174.667 467.6 177.333 487.067 177.333C499.067 177.333 502.667 176.933 504 175.333C505.333 173.733 505.333 172.933 504 171.333C503.067 170.267 501.467 169.333 500.533 169.333C499.067 169.333 498.667 162.533 498.4 132.267C498 96.3999 497.867 95.3333 495.333 95.1999C493.867 95.1999 487.467 95.4666 481.067 95.8666Z" fill="black"/>
<path d="M536.933 97.4668C530.933 100.667 526.667 107.067 526.667 113.067C526.667 119.067 532.8 125.333 538.667 125.333C541.6 125.333 544.133 124.133 546.8 121.467C551.733 116.4 551.867 111.333 547.067 106.267C543.6 102.8 543.467 102.4 545.733 101.2C546.933 100.4 548 98.6668 548 97.3335C548 93.8668 543.6 93.8668 536.933 97.4668Z" fill="black"/>
<path d="M214.4 98.7998C213.067 99.5998 212 100.666 212 101.333C212 102.8 230.4 129.066 232.267 130.133C232.933 130.666 234.533 130.133 235.6 128.933C237.467 127.2 236.667 125.466 228 113.066C216 95.9998 217.067 97.1998 214.4 98.7998Z" fill="black"/>
<path d="M812.267 111.333C806.267 118.933 801.333 125.733 801.333 126.4C801.333 127.467 804.267 129.333 806.133 129.333C807.067 129.333 828 102.4 828 101.2C828 100.667 826.933 99.4668 825.6 98.8002C823.467 97.6002 821.6 99.4668 812.267 111.333Z" fill="black"/>
<path d="M170.667 134C169.333 135.6 171.067 138.267 180.8 149.333C187.2 156.667 193.2 162.667 194 162.667C194.933 162.667 196.4 161.867 197.2 160.933C198.267 159.467 196 156.133 186.667 145.6C180 138.133 174.133 132 173.467 132C172.8 132 171.6 132.933 170.667 134Z" fill="black"/>
<path d="M852.4 145.2C843.2 154.933 840.533 158.667 841.733 159.867C842.533 160.667 843.867 161.333 844.667 161.333C845.467 161.333 851.733 155.733 858.533 148.8C869.333 137.867 870.933 135.867 869.333 134.133C868.4 132.933 866.933 132 866.133 132C865.333 132 859.067 137.867 852.4 145.2Z" fill="black"/>
<path d="M716 135.6C709.867 135.867 704 136.8 703.067 137.6C700.267 139.867 701.067 142.533 704.667 143.467L708 144.267V176.8C708 203.6 707.733 209.333 706.133 209.333C705.2 209.333 703.6 210.267 702.667 211.333C701.333 212.933 701.333 213.733 702.667 215.333C704 216.933 707.6 217.333 719.6 217.333C739.067 217.333 745.067 214.667 736 210L732 207.867V171.333C732 137.2 731.867 134.667 729.733 134.933C728.4 135.067 722.267 135.467 716 135.6Z" fill="black"/>
<path d="M275.333 148.933C266.667 149.867 263.733 154.4 270.8 156L274 156.8L274.4 189.067L274.667 221.333L271.467 222.667C267.2 224.267 266.267 226 268.533 227.867C269.733 228.933 276.133 229.333 287.467 229.067C302.533 228.667 304.667 228.4 305.067 226.4C305.333 224.8 304.267 223.6 302.133 222.667L298.667 221.333V184.667V148L289.733 148.267C284.667 148.4 278.267 148.667 275.333 148.933Z" fill="black"/>
<path d="M342.667 149.2C335.6 150.133 333.733 153.867 339.2 156L342.667 157.333V189.333V221.333L339.2 222.667C337.067 223.6 336 224.8 336.267 226.4C336.667 228.4 338.8 228.667 353.867 229.067C365.2 229.333 371.6 228.933 372.8 227.867C375.067 226 374.133 224.267 369.867 222.667L366.667 221.333V184.667V148L357.733 148.267C352.667 148.267 346 148.8 342.667 149.2Z" fill="black"/>
<path d="M578 153.333C575.6 157.867 573.2 158.133 556.133 156C540.133 153.867 530.133 158.267 526.533 168.933C524.4 175.6 526.667 177.867 532.533 175.067C536.667 173.2 537.867 173.2 549.333 175.867C556.933 177.733 563.2 178.533 565.867 177.867C575.2 175.867 583.867 165.067 584 155.2C584 149.333 580.533 148.267 578 153.333Z" fill="black"/>
<path d="M132.133 172.4C130.933 174 132.933 176.533 143.6 186.533C150.8 193.2 157.333 198.667 158.133 198.667C158.933 198.667 160.4 197.867 161.2 196.8C162.4 195.333 160.267 192.667 150 183.2C142.933 176.667 136.4 171.2 135.467 170.933C134.533 170.667 133.067 171.467 132.133 172.4Z" fill="black"/>
<path d="M890.267 181.467C877.6 191.867 874.533 196.667 880.267 196.667C883.867 196.667 908.267 176.133 907.733 173.6C906.933 169.2 903.067 170.933 890.267 181.467Z" fill="black"/>
<path d="M98.9334 213.6C98 214.533 97.3334 215.867 97.3334 216.533C97.4667 218.133 124.533 238.667 126.533 238.667C127.733 238.667 130 233.467 129.067 232.8C119.867 225.733 101.333 212 100.933 212C100.8 212 99.8667 212.667 98.9334 213.6Z" fill="black"/>
<path d="M923.733 221.733C915.867 227.067 909.333 232 909.333 232.8C909.333 233.6 910.133 235.067 911.2 235.867C912.8 237.2 915.867 235.733 927.6 227.867C935.467 222.667 942.133 218.133 942.4 217.867C943.2 217.333 940 212 938.933 212.133C938.4 212.133 931.6 216.533 923.733 221.733Z" fill="black"/>
<path d="M69.4666 259.333C67.8666 262 66.6666 264.533 66.6666 265.2C66.6666 266.133 121.2 298 123.067 298C124.267 298 130.133 288.267 129.2 287.6C128.933 287.333 117.867 280.933 104.667 273.333C91.4666 265.867 78.8 258.533 76.5333 257.2L72.2666 254.667L69.4666 259.333Z" fill="black"/>
<path d="M940 270.8C924.933 279.467 912.133 286.8 911.333 287.067C910.133 287.467 914.133 296.8 916.133 298C916.8 298.533 971.467 267.733 973.2 265.867C973.733 265.333 969.2 256.133 968 255.333C967.6 255.067 954.933 262 940 270.8Z" fill="black"/>
<path d="M857.2 276C850.533 279.467 845.333 286 845.333 290.8C845.333 300.8 853.467 306.933 862 303.467C870 300.133 871.733 291.733 865.867 285.733C862.667 282.533 862.533 282 864.533 280.667C865.733 279.733 866.667 277.733 866.667 276.133C866.667 272.667 863.733 272.533 857.2 276Z" fill="black"/>
<path d="M870.667 276C870.667 277.6 871.733 280.4 873.067 282.267C876.133 287.067 876.133 305.467 873.067 311.467C871.867 313.733 866.933 318.933 862.133 323.2C857.333 327.467 853.333 331.333 853.333 332C853.333 335.733 890.8 317.467 895.2 311.6C905.6 297.867 900.533 281.2 884.133 275.333C875.733 272.4 870.667 272.667 870.667 276Z" fill="black"/>
<path d="M207.333 291.2C199.733 294.667 194.267 300.533 190.133 309.333C187.867 314.267 187.333 318 187.333 330C187.333 346.133 189.2 352.267 196.8 361.2C200.267 365.333 211.867 372 215.733 372C218.267 372 217.6 366.133 214.667 363.6C212.133 361.467 212 359.733 212 330C212 300.267 212.133 298.533 214.667 296.4C217.6 293.867 218.267 288 215.733 288C214.8 288 210.933 289.467 207.333 291.2Z" fill="black"/>
<path d="M222.667 291.067C222.667 292.667 223.867 295.067 225.333 296.4C227.867 298.533 228 300.267 228 330C228 359.733 227.867 361.467 225.333 363.6C222.4 366.133 221.733 372 224.4 372C228.133 372 239.733 365.333 243.2 361.2C250.8 352.267 252.667 346.133 252.667 330C252.667 318 252.133 314.267 249.867 309.333C245.733 300.533 240.267 294.667 232.667 291.2C224.267 287.2 222.667 287.2 222.667 291.067Z" fill="black"/>
<path d="M138.667 290.533C131.6 291.467 129.733 295.2 135.2 297.333L138.667 298.667V330.667V362.667L135.2 364C133.067 364.933 132 366.133 132.267 367.733C132.667 369.733 134.8 370 149.867 370.4C161.2 370.667 167.6 370.267 168.8 369.2C171.067 367.333 170.133 365.6 165.867 364L162.667 362.667V326V289.333L153.733 289.6C148.667 289.6 142 290.133 138.667 290.533Z" fill="black"/>
<path d="M44.1333 309.2C42.9333 311.333 44.5333 312.4 59.4667 319.333C73.2 325.733 76.4 326.8 77.4667 325.2C78.1333 324.133 78.6667 322.667 78.6667 322C78.5333 320.8 48.8 306.667 46.4 306.667C45.8667 306.667 44.8 307.733 44.1333 309.2Z" fill="black"/>
<path d="M975.733 313.067C967.067 316.533 960 319.733 960 320.133C960 320.533 960.8 321.733 961.733 322.933C963.2 324.933 964.933 324.533 979.333 318.667C991.733 313.733 995.333 311.733 995.333 309.867C995.333 305.867 992.267 306.4 975.733 313.067Z" fill="black"/>
<path d="M897.733 330.933C897.067 331.867 896 333.733 895.467 335.2C894.667 337.333 893.733 337.6 887.6 336.8C868 334.267 859.467 334.4 854.667 337.067C849.467 339.867 843.867 348.533 844.267 352.667C844.667 355.467 845.867 355.6 854.267 353.867C856.8 353.333 862.533 354 868 355.333C884.933 359.467 894.4 356.267 899.867 344.533C902.933 338.267 903.2 330.533 900.533 329.733C899.733 329.467 898.533 330 897.733 330.933Z" fill="black"/>
<path d="M24.8 359.6C24.2666 360.8 24.4 362.267 24.9333 362.667C26.8 364.4 58.4 374.4 59.2 373.6C59.6 373.2 60 371.867 60 370.533C60 368.8 56.2666 366.933 43.6 362.8C34.6666 359.733 26.9333 357.333 26.5333 357.333C26 357.333 25.2 358.4 24.8 359.6Z" fill="black"/>
<path d="M1003.33 359.467C999.733 360.667 992.667 362.667 987.733 364.133C980.133 366.4 979.067 367.067 979.6 369.333C980 370.8 981.067 372 981.867 372C983.867 372 1014.67 363.2 1015.47 362.267C1015.73 362 1015.73 360.667 1015.2 359.467C1014.27 356.933 1012.13 356.933 1003.33 359.467Z" fill="black"/>
<path d="M10.6666 412.4C10.6666 415.333 11.7333 415.867 27.0666 419.2C36 421.067 44.1333 422.667 45.0666 422.667C47.6 422.667 46.9333 417.6 44.4 416.8C41.2 415.867 12.4 409.333 11.4666 409.333C11.0666 409.333 10.6666 410.8 10.6666 412.4Z" fill="black"/>
<path d="M1009.07 412.4C994 415.067 993.333 415.333 993.333 418.4C993.333 421.2 993.867 421.6 997.067 420.933C999.067 420.533 1007.07 419.2 1015.07 417.867C1028.53 415.733 1029.33 415.467 1029.33 412.533C1029.33 408.667 1029.73 408.667 1009.07 412.4Z" fill="black"/>
<path d="M2.66663 465.867C2.66663 467.733 3.06663 469.333 3.73329 469.333C4.26663 469.333 11.8666 470.267 20.6666 471.333C29.3333 472.4 37.0666 473.333 37.6 473.333C38.1333 473.333 38.6666 471.867 38.6666 470.267C38.6666 467.2 38.1333 467.067 23.0666 465.467C14.4 464.533 6.26663 463.6 5.06663 463.2C3.19996 462.667 2.66663 463.333 2.66663 465.867Z" fill="black"/>
<path d="M1030.67 463.467C1028.8 463.733 1021.47 464.267 1014.4 464.667C1001.87 465.6 1001.33 465.733 1001.33 468.667C1001.33 471.467 1001.87 471.733 1006.4 471.2C1009.07 470.933 1017.2 470.4 1024.4 469.867C1036.93 469.067 1037.33 468.933 1037.33 465.867C1037.33 464.133 1036.53 462.8 1035.73 462.8C1034.8 462.933 1032.53 463.2 1030.67 463.467Z" fill="black"/>
<path d="M107.2 476C92.9333 479.333 83.0667 494.8 86.6667 508C88.4 514.267 96.6667 522 102.8 523.2C105.333 523.6 110 523.2 113.333 522.267C118.133 520.933 119.467 519.867 119.733 517.2C120.133 514.4 119.6 514 115.733 514H111.333L110.933 498.933C110.667 486.533 110.933 483.867 112.667 483.2C115.067 482.267 115.467 474.667 113.067 474.8C112.133 474.933 109.467 475.333 107.2 476Z" fill="black"/>
<path d="M120 477.733C120 479.467 121.2 481.733 122.667 483.067C125.2 485.2 125.333 486.933 125.333 517.333C125.333 547.733 125.2 549.467 122.667 551.6C121.2 552.933 120 555.2 120 556.933C120 559.867 120.133 559.867 126.4 558C140 554 150.667 536 150.667 517.333C150.667 498.667 140 480.667 126.4 476.667C120.133 474.8 120 474.8 120 477.733Z" fill="black"/>
<path d="M920.933 475.467C918.933 477.467 920.133 481.067 923.333 483.2C926.533 485.333 926.667 486.133 926.667 497.2C926.667 509.867 926.133 511.067 919.6 512.667C913.2 514.267 915.6 520 922.667 520C926 520 926.667 522.533 926.667 536.8C926.667 548.667 926.533 549.333 923.333 551.467C920.133 553.6 918.933 557.867 921.2 559.2C923.467 560.667 937.867 557.333 942.133 554.4C955.733 545.067 954.933 526.533 940.533 519.2L935.067 516.533L939.867 513.867C954.133 506.267 954.133 488.4 939.867 479.733C934 476.133 922.8 473.6 920.933 475.467Z" fill="black"/>
<path d="M905.333 478.933C899.733 482.8 896.267 487.6 895.2 492.8C894.667 496 895.2 497.733 898 501.067C902.933 506.933 909.067 506.933 913.867 501.2C918 496.267 918.267 493.467 914.667 488.933C911.467 484.933 911.333 483.2 914 482.133C915.067 481.733 916 480.133 916 478.667C916 474.933 910.933 475.2 905.333 478.933Z" fill="black"/>
<path d="M514.667 505.733C512 506.667 508.8 509.2 507.067 511.867C496.8 527.067 516.133 544 529.867 532C535.2 527.2 536.8 521.867 534.667 515.333C532 507.333 523.067 502.933 514.667 505.733Z" fill="black"/>
<path d="M0 520.667V526.667H32.6667H65.3333V520.667V514.667H32.6667H0V520.667Z" fill="black"/>
<path d="M974.667 520.667V526.667H1007.33H1040V520.667V514.667H1007.33H974.667V520.667Z" fill="black"/>
<path d="M99.3334 530.533C92.4 533.467 89.6 540.667 92.6667 547.333C95.3333 552.667 101.067 556.667 109.067 558.4C114.4 559.6 114.667 559.6 114.667 556.667C114.667 554.933 113.733 553.333 112.667 552.8C110.133 551.867 110.133 549.467 112.667 544.4C115.333 539.067 113.6 534.267 108.133 531.333C103.733 529.067 103.067 529.067 99.3334 530.533Z" fill="black"/>
<path d="M898.267 530.8C894.667 532.933 891.733 539.733 892.667 543.867C894.133 550.933 904.8 558.667 912.8 558.667C917.333 558.667 917.2 553.733 912.667 552.533C908.533 551.467 908.533 551.333 912.8 546.267C915.333 543.333 916 541.333 915.333 538.8C913.6 531.467 904.533 527.2 898.267 530.8Z" fill="black"/>
<path d="M1001.33 569.733C1001.33 572.8 1002.13 573.067 1017.07 575.067C1025.6 576.4 1033.73 577.333 1035.07 577.333C1038.53 577.333 1038 572.133 1034.4 571.333C1031.47 570.8 1003.33 566.667 1002 566.667C1001.6 566.667 1001.33 568.133 1001.33 569.733Z" fill="black"/>
<path d="M21.3333 570.133C12.1333 571.067 4.26663 571.867 3.73329 571.867C3.06663 572 2.66663 573.333 2.66663 574.8C2.66663 577.6 2.93329 577.733 15.7333 576.8C36.8 575.333 38.6666 574.8 38.6666 571.2C38.6666 569.467 38.5333 568.133 38.4 568.133C38.1333 568.267 30.5333 569.067 21.3333 570.133Z" fill="black"/>
<path d="M993.733 619.467C993.333 620.533 993.467 622 994.133 622.533C995.867 624 1027.73 631.867 1028.67 630.933C1029.47 630.133 1029.6 625.333 1028.8 625.333C1028.53 625.333 1021.47 623.6 1013.2 621.333C995.6 616.667 994.8 616.667 993.733 619.467Z" fill="black"/>
<path d="M26.9334 622.267C11.8667 625.467 10.5334 626 10.9334 628.533C11.2 630.133 12 631.2 12.6667 631.2C13.4667 631.067 21.3334 629.6 30.4 628C45.7334 625.067 46.6667 624.8 46.6667 621.867C46.6667 618.133 47.6 618.133 26.9334 622.267Z" fill="black"/>
<path d="M980.533 668.267C979.467 671.733 979.867 672 998.4 678.667C1010.67 683.2 1013.87 683.867 1014.8 682.4C1017.2 678.667 1017.6 678.8 991.733 669.333C981.6 665.6 981.467 665.6 980.533 668.267Z" fill="black"/>
<path d="M40.1334 673.2C31.7334 675.867 24.6667 678.667 24.4 679.333C24.2667 680.133 24.5334 681.467 25.2 682.533C26.2667 684.133 36.5334 681.6 59.6 674C61.8667 673.2 60 668 57.4667 668.133C56.2667 668.267 48.5334 670.4 40.1334 673.2Z" fill="black"/>
<path d="M883.867 671.6C882 673.6 878.8 677.467 876.933 680.133L873.333 684.933V713.733C873.333 737.467 873.067 742.667 871.467 742.667C870.533 742.667 868.8 743.6 867.867 744.8C864.4 748.933 869.733 750.667 885.733 750.667C904.4 750.667 910.267 747.867 901.333 743.333C898.133 741.6 897.333 740.4 897.333 736.667C897.333 732.4 897.6 732.133 902.4 731.733C906.267 731.467 907.333 730.8 907.333 728.667C907.333 726.533 906.267 725.867 902.4 725.6L897.333 725.2L897.067 696.933L896.667 668.667L892 668.267C888.267 668 886.533 668.667 883.867 671.6Z" fill="black"/>
<path d="M188 678C188 679.6 188.933 681.733 190 682.667C191.467 683.867 192 687.333 192 696.8C192 706 191.467 709.6 190 711.2C188.933 712.267 188 714.667 188 716.4C188 718.267 188.933 720 190 720.533C192.8 721.6 192.933 747.6 190 751.467C187.467 754.8 187.467 760 190 760C190.933 760 194.933 759.333 198.667 758.533C216.8 754.667 222.8 734.4 209.2 722.267C206.133 719.6 202.8 717.333 201.867 717.333C198.533 717.333 199.867 715.333 205.067 712.667C211.467 709.2 216.533 700 215.333 693.467C213.733 684.667 205.867 678.4 194.133 676.133C188.267 675.067 188 675.2 188 678Z" fill="black"/>
<path d="M170 678.533C161.6 682.4 157.067 688.133 156.4 695.6C155.733 703.733 158.933 709.2 166.667 713.067L172.267 715.867L166.933 718.533C159.6 722.267 155.6 728.267 154.933 736.533C154.4 744.4 157.6 750.533 164.933 755.467C169.333 758.4 180.267 760.8 182.667 759.333C184.667 758.133 184.267 753.867 182 752C180.4 750.667 180 747.067 180 735.333C180 723.2 180.4 720.133 182 719.467C183.067 719.067 184 717.6 184 716.267C184 714.8 183.067 712.933 182 712C180.4 710.667 180 707.2 180 696.667C180 685.733 180.4 682.8 182 682.133C183.067 681.733 184 680.133 184 678.667C184 676.533 183.2 676 179.733 676C177.333 676 172.933 677.2 170 678.533Z" fill="black"/>
<path d="M856.667 707.333C844.533 724.267 842.4 728.8 845.6 730.8C846.533 731.467 852.267 732 858.4 732C869.2 732 869.333 732 869.333 728.667C869.333 725.467 869.067 725.333 860.667 725.333C855.867 725.333 852 725.067 852 724.667C852 724.4 855.867 718.533 860.667 711.733C867.067 702.667 869.333 698.4 869.333 695.067C869.333 692.667 869.2 690.667 869.067 690.667C868.8 690.667 863.333 698.133 856.667 707.333Z" fill="black"/>
<path d="M962.533 716.133C961.733 717.6 961.333 719.067 961.6 719.333C962.133 719.867 993.6 734.667 994.133 734.667C994.4 734.667 995.2 733.467 996 732C997.333 729.6 996.133 728.8 983.867 722.533C964.667 712.933 964.4 712.933 962.533 716.133Z" fill="black"/>
<path d="M60.4 721.733C48.6667 726.667 44 729.333 44 730.933C44 732.133 44.5333 733.6 45.3333 734C47.0667 735.067 78.6667 721.333 78.6667 719.467C78.5333 714.8 76.2667 715.067 60.4 721.733Z" fill="black"/>
<path d="M95.0666 758.4C80.2666 766.933 67.7333 774.4 67.2 774.933C66 776.133 70.6666 785.333 72.5333 785.333C73.7333 785.333 122.933 757.467 127.333 754.133C129.733 752.4 129.733 752.267 126.8 747.467C125.067 744.8 123.333 742.667 122.933 742.667C122.4 742.8 109.867 749.867 95.0666 758.4Z" fill="black"/>
<path d="M913.333 747.467C911.6 750.133 910.8 752.667 911.467 753.333C913.6 755.333 966 785.333 967.467 785.333C968.533 785.333 973.333 777.333 973.333 775.467C973.333 774.8 917.733 742.667 916.8 742.667C916.533 742.667 914.933 744.8 913.333 747.467Z" fill="black"/>
<path d="M912.267 802.933C911.333 803.867 910.667 805.2 910.8 805.867C910.8 806.667 917.2 812.267 925.067 818.4C938 828.533 939.467 829.333 940.933 827.067C941.867 825.867 942.533 824.4 942.4 823.867C942 822.8 915.2 801.333 914.267 801.333C914.133 801.333 913.2 802 912.267 802.933Z" fill="black"/>
<path d="M111.733 813.067C103.867 818.667 97.3334 823.733 97.3334 824.133C97.3334 824.533 98.1334 825.867 99.0667 827.2C100.533 829.333 101.6 828.8 111.333 821.867C131.2 807.867 130.8 808.133 129.333 805.2C128.533 803.867 127.467 802.667 126.933 802.667C126.4 802.8 119.6 807.467 111.733 813.067Z" fill="black"/>
<path d="M304.667 808.267C303.2 809.067 300.533 810.933 298.8 812.533L295.6 815.333L296.267 811.6C296.8 808.8 296.4 808 294.533 808C292.8 808 291.867 809.333 291.467 812.267C291.067 814.667 290.133 820.267 289.333 824.533C288 832.533 288.933 835.867 291.867 834.133C292.667 833.6 293.333 832.133 293.333 830.8C293.333 826.133 296.667 824.933 306.4 826C322.533 828.133 331.333 827.6 334.667 824.667C341.867 818.267 344 805.467 337.2 809.733C335.2 810.933 332.8 810.8 325.733 808.933C315.467 806.267 308.533 806.133 304.667 808.267Z" fill="black"/>
<path d="M706.133 811.867C705.733 814.533 705.333 818.8 705.333 821.467V826.267L715.067 827.2C727.333 828.267 736.933 826.267 744 821.2C748.533 817.867 754.667 810.4 754.667 808C754.667 807.6 743.867 807.333 730.8 807.2H706.933L706.133 811.867Z" fill="black"/>
<path d="M704.933 831.6C704.267 832.667 703.467 846.667 703.867 850.267C704.133 852.8 706.8 852.4 715.2 848.667C721.867 845.733 722.667 844.933 722.667 841.333C722.667 836.667 722.133 836.533 716.267 840C713.867 841.467 711.6 842.667 711.2 842.667C710.8 842.667 710.667 840.133 710.933 836.933C711.2 832.133 710.933 831.333 708.4 830.933C706.933 830.667 705.333 830.933 704.933 831.6Z" fill="black"/>
<path d="M327.067 832.933C325.333 833.2 324 834 324 834.533C324 835.067 320 840.267 315.2 846.133C302.133 861.867 298.4 870.533 301.333 879.067C304.933 890.267 315.867 893.467 322.933 885.467L326.8 881.067L326 866.267C325.067 851.333 325.733 847.067 331.333 834.267C331.867 833.067 331.733 832.133 331.2 832.133C330.533 832.267 328.667 832.667 327.067 832.933Z" fill="black"/>
<path d="M726.667 841.333C726.667 843.6 727.867 846.533 729.333 848C731.733 850.4 732 852.4 732 865.333C732 878.267 731.733 880.267 729.333 882.667C725.2 886.8 725.867 890.667 730.533 890.667C740.267 890.667 750.933 884 754.8 875.467C762.8 857.733 749.867 837.333 730.533 837.333C727.067 837.333 726.667 837.867 726.667 841.333Z" fill="black"/>
<path d="M880 843.333C878.4 845.2 879.867 847.2 890.8 858.133C897.6 865.067 904 870.667 904.8 870.667C905.6 870.667 907.067 869.733 908.133 868.533C909.6 866.8 908 864.8 896.667 854.267C889.467 847.467 883.2 841.867 882.667 841.6C882.133 841.467 880.933 842.133 880 843.333Z" fill="black"/>
<path d="M144.4 854.533C133.6 864 131.2 866.667 132.267 868.533C134.133 871.867 135.733 871.2 145.067 862.933C149.867 858.8 155.867 853.467 158.533 851.2C162.667 847.6 163.067 846.8 161.467 844.8C160.533 843.6 159.2 842.667 158.667 842.667C158.133 842.667 151.733 848 144.4 854.533Z" fill="black"/>
<path d="M707.333 861.2C699.6 864.4 697.067 874.133 702.133 880.933C705.2 884.933 712 888.933 718.4 890.133C722 890.933 722.667 890.667 722.667 888.267C722.667 886.8 721.467 884.8 719.867 883.733L717.067 882L719.867 877.067C723.067 871.733 722.667 866.933 718.933 863.6C716 860.933 710.667 859.867 707.333 861.2Z" fill="black"/>
<path d="M510.667 868.8C486.267 879.333 480.933 922.533 501.6 942.267C506 946.533 514.133 950.667 518 950.667C521.067 950.667 520.4 946.667 516.533 943.2L513.2 940L513.6 908C514 876.533 514 876 517.067 874C520.667 871.467 521.067 866.667 517.733 866.667C516.4 866.8 513.2 867.733 510.667 868.8Z" fill="black"/>
<path d="M524 869.2C524 870.533 525.333 872.533 527.067 873.733C530 875.6 530 875.733 527.733 879.733C524.533 885.2 524.8 888.8 528.667 892.667C533.2 897.333 539.067 897.067 544.133 892.133C551.2 885.067 548.133 875.6 536.8 870C528.667 866 524 865.6 524 869.2Z" fill="black"/>
<path d="M844 879.333C842.667 881.067 842.667 881.867 844.267 883.733C845.333 884.933 850.533 891.2 855.867 897.6C864.4 907.867 865.867 909.067 868.267 907.867C869.6 907.067 870.667 906 870.4 905.333C869.6 903.067 847.867 877.333 846.8 877.333C846.133 877.333 844.933 878.267 844 879.333Z" fill="black"/>
<path d="M187.333 885.6C167.6 906.533 168.533 905.067 171.067 907.6C173.2 909.733 173.467 909.6 176.8 906.533C178.667 904.8 184.533 898.667 189.6 892.933C197.467 884.4 198.667 882.267 197.333 880.667C196.4 879.6 195.333 878.667 194.8 878.667C194.267 878.667 190.933 881.867 187.333 885.6Z" fill="black"/>
<path d="M523.733 904.267C521.067 905.2 520 906.533 520 908.667C520 911.333 520.667 911.733 523.733 911.6L527.333 911.333L527.733 927.067C528 940.133 527.733 942.8 526 943.467C524.933 943.867 524 945.867 524 947.6C524 950.933 524.267 950.933 530.4 950.133C543.067 948.4 553.333 936.8 553.333 924C553.333 909.067 538.133 898.933 523.733 904.267Z" fill="black"/>
<path d="M805.067 911.2C802.933 912.667 803.733 914.267 812.8 927.733C818.267 936 823.2 942.667 823.733 942.667C825.6 942.667 828.267 940.267 827.867 938.933C826.933 936.667 808.667 909.333 808 909.333C807.6 909.467 806.267 910.133 805.067 911.2Z" fill="black"/>
<path d="M222.667 924.267C217.2 931.733 212.4 938.267 212.133 939.067C211.733 940.267 214.4 942.667 216.267 942.667C216.8 942.667 222.133 936.267 228 928.4C237.867 915.333 238.667 913.867 236.533 912.4C235.2 911.467 233.867 910.667 233.467 910.667C233.067 910.8 228.133 916.8 222.667 924.267Z" fill="black"/>
<path d="M271.733 937.733C263.2 952.533 255.867 965.6 255.333 966.667C254.8 968.133 256.133 969.733 259.867 971.733L265.067 974.667L281.2 946.8C290.133 931.333 297.333 918.267 297.333 917.467C297.333 916.533 288.933 910.667 287.6 910.667C287.467 910.667 280.267 922.8 271.733 937.733Z" fill="black"/>
<path d="M747.067 913.6C744.667 915.067 742.667 916.8 742.667 917.467C742.667 918.267 749.867 931.333 758.8 946.667L774.933 974.667L780.133 971.6C783.467 969.733 785.067 968 784.667 966.8C783.333 963.2 752.667 910.667 752 910.8C751.6 910.8 749.333 912.133 747.067 913.6Z" fill="black"/>
<path d="M313.067 977.6C306.4 992.267 305.867 994.133 307.733 995.6C308.933 996.533 310.133 997.333 310.667 997.333C311.067 997.333 314.8 990 318.933 980.933C325.6 966.4 326.133 964.533 324.267 962.933C323.067 962.133 321.867 961.333 321.333 961.333C320.933 961.333 317.2 968.667 313.067 977.6Z" fill="black"/>
<path d="M716.667 962.667C715.733 964.267 727.867 997.333 729.467 997.333C729.867 997.333 731.067 996.533 732.267 995.6C734.267 994.133 733.867 992.4 728 978C722 962.8 719.067 958.933 716.667 962.667Z" fill="black"/>
<path d="M513.333 1008V1041.33H519.333H525.333V1008V974.667H519.333H513.333V1008Z" fill="black"/>
<path d="M367.333 981.6C366.933 982.533 364.267 990.4 361.467 998.933C356.267 1014.67 356.133 1016 361.333 1016C362 1016 364.933 1008.4 368 999.2C372.667 985.467 373.333 982.133 371.867 981.2C369.333 979.6 368 979.733 367.333 981.6Z" fill="black"/>
<path d="M668.8 981.2C667.733 982.933 677.6 1016 679.2 1016C683.6 1015.87 683.6 1013.73 678.933 996.933C675.2 983.333 673.733 980 671.867 980C670.533 980 669.2 980.533 668.8 981.2Z" fill="black"/>
<path d="M412.933 1010.27C410.933 1019.73 409.333 1027.73 409.333 1028.13C409.333 1028.67 410.533 1029.33 412 1029.73C415.067 1030.53 414.667 1031.2 419.333 1010.8C422.667 995.467 422.533 993.467 418 993.333C417.2 993.333 414.933 1000.93 412.933 1010.27Z" fill="black"/>
<path d="M619.733 994C619.333 994.4 620.133 1001.47 621.6 1009.73C625.067 1031.07 624.933 1030.53 628 1029.73C631.333 1028.8 631.333 1028.27 628 1010.13C626.533 1002.13 625.333 995.067 625.333 994.4C625.333 993.2 620.933 992.933 619.733 994Z" fill="black"/>
<path d="M466.667 1002.27C466.667 1002.93 465.733 1010.8 464.667 1019.87C462.933 1033.33 462.933 1036.67 464.267 1037.6C468.267 1040 468.933 1038.27 470.667 1021.6C471.6 1012.27 472.4 1004 472.533 1003.33C472.533 1002.53 471.333 1001.87 469.733 1001.6C468 1001.33 466.667 1001.6 466.667 1002.27Z" fill="black"/>
<path d="M569.733 1014.27C570.267 1021.47 570.667 1029.87 570.667 1033.07C570.667 1038.27 570.933 1038.8 573.733 1038.4C576.533 1038 576.667 1037.6 576.267 1025.33C575.733 1005.33 574.933 1001.33 571.733 1001.33C569.067 1001.33 568.933 1001.73 569.733 1014.27Z" fill="black"/>
</svg>
