<svg width="152" height="25" viewBox="0 0 152 25" fill="none" xmlns="http://www.w3.org/2000/svg">
<path d="M4.1579 17.421L10.1579 11.421L4.1579 5.42102" stroke="black" stroke-width="2" stroke-linecap="round" stroke-linejoin="round"/>
<path d="M12.1579 19.421H20.1579" stroke="black" stroke-width="2" stroke-linecap="round" stroke-linejoin="round"/>
<path d="M33.504 18V6.8H38.752C40.096 6.8 41.12 7.06667 41.824 7.6C42.528 8.12267 42.88 8.82667 42.88 9.712C42.88 10.3093 42.7413 10.8213 42.464 11.248C42.1867 11.664 41.8133 11.9893 41.344 12.224C40.8853 12.448 40.384 12.56 39.84 12.56L40.128 11.984C40.7573 11.984 41.3227 12.1013 41.824 12.336C42.3253 12.56 42.72 12.8907 43.008 13.328C43.3067 13.7653 43.456 14.3093 43.456 14.96C43.456 15.92 43.088 16.6667 42.352 17.2C41.616 17.7333 40.5227 18 39.072 18H33.504ZM35.584 16.368H38.944C39.7227 16.368 40.32 16.24 40.736 15.984C41.152 15.728 41.36 15.3173 41.36 14.752C41.36 14.1973 41.152 13.792 40.736 13.536C40.32 13.2693 39.7227 13.136 38.944 13.136H35.424V11.52H38.528C39.2533 11.52 39.808 11.392 40.192 11.136C40.5867 10.88 40.784 10.496 40.784 9.984C40.784 9.46133 40.5867 9.072 40.192 8.816C39.808 8.56 39.2533 8.432 38.528 8.432H35.584V16.368ZM49.0999 18.112C48.3745 18.112 47.7345 17.9787 47.1799 17.712C46.6252 17.4347 46.1932 17.0187 45.8839 16.464C45.5745 15.8987 45.4199 15.1893 45.4199 14.336V9.456H47.4199V14.064C47.4199 14.832 47.5905 15.408 47.9319 15.792C48.2839 16.1653 48.7799 16.352 49.4199 16.352C49.8892 16.352 50.2945 16.256 50.6359 16.064C50.9879 15.872 51.2599 15.584 51.4519 15.2C51.6545 14.816 51.7559 14.3413 51.7559 13.776V9.456H53.7559V18H51.8519V15.696L52.1879 16.4C51.8999 16.9547 51.4785 17.3813 50.9239 17.68C50.3692 17.968 49.7612 18.112 49.0999 18.112ZM59.0145 18.112C58.2998 18.112 57.6118 18.0213 56.9505 17.84C56.2998 17.648 55.7825 17.4187 55.3985 17.152L56.1665 15.632C56.5505 15.8773 57.0092 16.08 57.5425 16.24C58.0758 16.4 58.6092 16.48 59.1425 16.48C59.7718 16.48 60.2252 16.3947 60.5025 16.224C60.7905 16.0533 60.9345 15.824 60.9345 15.536C60.9345 15.3013 60.8385 15.1253 60.6465 15.008C60.4545 14.88 60.2038 14.784 59.8945 14.72C59.5852 14.656 59.2385 14.5973 58.8545 14.544C58.4812 14.4907 58.1025 14.4213 57.7185 14.336C57.3452 14.24 57.0038 14.1067 56.6945 13.936C56.3852 13.7547 56.1345 13.5147 55.9425 13.216C55.7505 12.9173 55.6545 12.5227 55.6545 12.032C55.6545 11.488 55.8092 11.0187 56.1185 10.624C56.4278 10.2187 56.8598 9.90933 57.4145 9.696C57.9798 9.472 58.6465 9.36 59.4145 9.36C59.9905 9.36 60.5718 9.424 61.1585 9.552C61.7452 9.68 62.2305 9.86133 62.6145 10.096L61.8465 11.616C61.4412 11.3707 61.0305 11.2053 60.6145 11.12C60.2092 11.024 59.8038 10.976 59.3985 10.976C58.7905 10.976 58.3372 11.0667 58.0385 11.248C57.7505 11.4293 57.6065 11.6587 57.6065 11.936C57.6065 12.192 57.7025 12.384 57.8945 12.512C58.0865 12.64 58.3372 12.7413 58.6465 12.816C58.9558 12.8907 59.2972 12.9547 59.6705 13.008C60.0545 13.0507 60.4332 13.12 60.8065 13.216C61.1798 13.312 61.5212 13.4453 61.8305 13.616C62.1505 13.776 62.4065 14.0053 62.5985 14.304C62.7905 14.6027 62.8865 14.992 62.8865 15.472C62.8865 16.0053 62.7265 16.4693 62.4065 16.864C62.0972 17.2587 61.6545 17.568 61.0785 17.792C60.5025 18.0053 59.8145 18.112 59.0145 18.112ZM64.6089 18V9.456H66.6089V18H64.6089ZM65.6169 8.048C65.2435 8.048 64.9342 7.93067 64.6889 7.696C64.4542 7.46133 64.3369 7.17867 64.3369 6.848C64.3369 6.50667 64.4542 6.224 64.6889 6C64.9342 5.76533 65.2435 5.648 65.6169 5.648C65.9902 5.648 66.2942 5.76 66.5289 5.984C66.7742 6.19733 66.8969 6.46933 66.8969 6.8C66.8969 7.152 66.7795 7.45067 66.5449 7.696C66.3102 7.93067 66.0009 8.048 65.6169 8.048ZM74.0819 9.36C74.7645 9.36 75.3725 9.49333 75.9059 9.76C76.4499 10.0267 76.8765 10.4373 77.1859 10.992C77.4952 11.536 77.6499 12.24 77.6499 13.104V18H75.6499V13.36C75.6499 12.6027 75.4685 12.0373 75.1059 11.664C74.7539 11.2907 74.2579 11.104 73.6179 11.104C73.1485 11.104 72.7325 11.2 72.3699 11.392C72.0072 11.584 71.7245 11.872 71.5219 12.256C71.3299 12.6293 71.2339 13.104 71.2339 13.68V18H69.2339V9.456H71.1379V11.76L70.8019 11.056C71.1005 10.512 71.5325 10.096 72.0979 9.808C72.6739 9.50933 73.3352 9.36 74.0819 9.36ZM84.2186 18.112C83.2693 18.112 82.4373 17.9253 81.7226 17.552C81.0186 17.168 80.4693 16.6453 80.0746 15.984C79.6906 15.3227 79.4986 14.5707 79.4986 13.728C79.4986 12.8747 79.6853 12.1227 80.0586 11.472C80.4426 10.8107 80.9653 10.2933 81.6266 9.92C82.2986 9.54667 83.0613 9.36 83.9146 9.36C84.7466 9.36 85.488 9.54133 86.1386 9.904C86.7893 10.2667 87.3013 10.7787 87.6746 11.44C88.048 12.1013 88.2346 12.88 88.2346 13.776C88.2346 13.8613 88.2293 13.9573 88.2186 14.064C88.2186 14.1707 88.2133 14.272 88.2026 14.368H81.0826V13.04H87.1466L86.3626 13.456C86.3733 12.9653 86.272 12.5333 86.0586 12.16C85.8453 11.7867 85.552 11.4933 85.1786 11.28C84.816 11.0667 84.3946 10.96 83.9146 10.96C83.424 10.96 82.992 11.0667 82.6186 11.28C82.256 11.4933 81.968 11.792 81.7546 12.176C81.552 12.5493 81.4506 12.992 81.4506 13.504V13.824C81.4506 14.336 81.568 14.7893 81.8026 15.184C82.0373 15.5787 82.368 15.8827 82.7946 16.096C83.2213 16.3093 83.712 16.416 84.2666 16.416C84.7466 16.416 85.1786 16.3413 85.5626 16.192C85.9466 16.0427 86.288 15.808 86.5866 15.488L87.6586 16.72C87.2746 17.168 86.7893 17.5147 86.2026 17.76C85.6266 17.9947 84.9653 18.112 84.2186 18.112ZM92.7958 18.112C92.0811 18.112 91.3931 18.0213 90.7318 17.84C90.0811 17.648 89.5638 17.4187 89.1798 17.152L89.9478 15.632C90.3318 15.8773 90.7904 16.08 91.3238 16.24C91.8571 16.4 92.3904 16.48 92.9238 16.48C93.5531 16.48 94.0064 16.3947 94.2838 16.224C94.5718 16.0533 94.7158 15.824 94.7158 15.536C94.7158 15.3013 94.6198 15.1253 94.4278 15.008C94.2358 14.88 93.9851 14.784 93.6758 14.72C93.3664 14.656 93.0198 14.5973 92.6358 14.544C92.2624 14.4907 91.8838 14.4213 91.4998 14.336C91.1264 14.24 90.7851 14.1067 90.4758 13.936C90.1664 13.7547 89.9158 13.5147 89.7238 13.216C89.5318 12.9173 89.4358 12.5227 89.4358 12.032C89.4358 11.488 89.5904 11.0187 89.8997 10.624C90.2091 10.2187 90.6411 9.90933 91.1957 9.696C91.7611 9.472 92.4278 9.36 93.1958 9.36C93.7718 9.36 94.3531 9.424 94.9398 9.552C95.5264 9.68 96.0118 9.86133 96.3958 10.096L95.6278 11.616C95.2224 11.3707 94.8118 11.2053 94.3958 11.12C93.9904 11.024 93.5851 10.976 93.1798 10.976C92.5718 10.976 92.1184 11.0667 91.8198 11.248C91.5318 11.4293 91.3878 11.6587 91.3878 11.936C91.3878 12.192 91.4838 12.384 91.6758 12.512C91.8678 12.64 92.1184 12.7413 92.4278 12.816C92.7371 12.8907 93.0784 12.9547 93.4518 13.008C93.8358 13.0507 94.2144 13.12 94.5878 13.216C94.9611 13.312 95.3024 13.4453 95.6118 13.616C95.9318 13.776 96.1878 14.0053 96.3798 14.304C96.5718 14.6027 96.6678 14.992 96.6678 15.472C96.6678 16.0053 96.5078 16.4693 96.1878 16.864C95.8784 17.2587 95.4358 17.568 94.8598 17.792C94.2838 18.0053 93.5958 18.112 92.7958 18.112ZM101.03 18.112C100.315 18.112 99.6275 18.0213 98.9661 17.84C98.3155 17.648 97.7981 17.4187 97.4141 17.152L98.1821 15.632C98.5661 15.8773 99.0248 16.08 99.5581 16.24C100.091 16.4 100.625 16.48 101.158 16.48C101.787 16.48 102.241 16.3947 102.518 16.224C102.806 16.0533 102.95 15.824 102.95 15.536C102.95 15.3013 102.854 15.1253 102.662 15.008C102.47 14.88 102.219 14.784 101.91 14.72C101.601 14.656 101.254 14.5973 100.87 14.544C100.497 14.4907 100.118 14.4213 99.7341 14.336C99.3608 14.24 99.0195 14.1067 98.7101 13.936C98.4008 13.7547 98.1501 13.5147 97.9581 13.216C97.7661 12.9173 97.6701 12.5227 97.6701 12.032C97.6701 11.488 97.8248 11.0187 98.1341 10.624C98.4435 10.2187 98.8755 9.90933 99.4301 9.696C99.9955 9.472 100.662 9.36 101.43 9.36C102.006 9.36 102.587 9.424 103.174 9.552C103.761 9.68 104.246 9.86133 104.63 10.096L103.862 11.616C103.457 11.3707 103.046 11.2053 102.63 11.12C102.225 11.024 101.819 10.976 101.414 10.976C100.806 10.976 100.353 11.0667 100.054 11.248C99.7661 11.4293 99.6221 11.6587 99.6221 11.936C99.6221 12.192 99.7181 12.384 99.9101 12.512C100.102 12.64 100.353 12.7413 100.662 12.816C100.971 12.8907 101.313 12.9547 101.686 13.008C102.07 13.0507 102.449 13.12 102.822 13.216C103.195 13.312 103.537 13.4453 103.846 13.616C104.166 13.776 104.422 14.0053 104.614 14.304C104.806 14.6027 104.902 14.992 104.902 15.472C104.902 16.0053 104.742 16.4693 104.422 16.864C104.113 17.2587 103.67 17.568 103.094 17.792C102.518 18.0053 101.83 18.112 101.03 18.112ZM113.51 18V8.56H109.798V6.8H119.302V8.56H115.59V18H113.51ZM123.636 18.112C122.762 18.112 121.983 17.9253 121.3 17.552C120.618 17.168 120.079 16.6453 119.684 15.984C119.29 15.3227 119.092 14.5707 119.092 13.728C119.092 12.8747 119.29 12.1227 119.684 11.472C120.079 10.8107 120.618 10.2933 121.3 9.92C121.983 9.54667 122.762 9.36 123.636 9.36C124.522 9.36 125.306 9.54667 125.988 9.92C126.682 10.2933 127.22 10.8053 127.604 11.456C127.999 12.1067 128.196 12.864 128.196 13.728C128.196 14.5707 127.999 15.3227 127.604 15.984C127.22 16.6453 126.682 17.168 125.988 17.552C125.306 17.9253 124.522 18.112 123.636 18.112ZM123.636 16.4C124.127 16.4 124.564 16.2933 124.948 16.08C125.332 15.8667 125.631 15.5573 125.844 15.152C126.068 14.7467 126.18 14.272 126.18 13.728C126.18 13.1733 126.068 12.6987 125.844 12.304C125.631 11.8987 125.332 11.5893 124.948 11.376C124.564 11.1627 124.132 11.056 123.652 11.056C123.162 11.056 122.724 11.1627 122.34 11.376C121.967 11.5893 121.668 11.8987 121.444 12.304C121.22 12.6987 121.108 13.1733 121.108 13.728C121.108 14.272 121.22 14.7467 121.444 15.152C121.668 15.5573 121.967 15.8667 122.34 16.08C122.724 16.2933 123.156 16.4 123.636 16.4ZM133.949 18.112C133.074 18.112 132.296 17.9253 131.613 17.552C130.93 17.168 130.392 16.6453 129.997 15.984C129.602 15.3227 129.405 14.5707 129.405 13.728C129.405 12.8747 129.602 12.1227 129.997 11.472C130.392 10.8107 130.93 10.2933 131.613 9.92C132.296 9.54667 133.074 9.36 133.949 9.36C134.834 9.36 135.618 9.54667 136.301 9.92C136.994 10.2933 137.533 10.8053 137.917 11.456C138.312 12.1067 138.509 12.864 138.509 13.728C138.509 14.5707 138.312 15.3227 137.917 15.984C137.533 16.6453 136.994 17.168 136.301 17.552C135.618 17.9253 134.834 18.112 133.949 18.112ZM133.949 16.4C134.44 16.4 134.877 16.2933 135.261 16.08C135.645 15.8667 135.944 15.5573 136.157 15.152C136.381 14.7467 136.493 14.272 136.493 13.728C136.493 13.1733 136.381 12.6987 136.157 12.304C135.944 11.8987 135.645 11.5893 135.261 11.376C134.877 11.1627 134.445 11.056 133.965 11.056C133.474 11.056 133.037 11.1627 132.653 11.376C132.28 11.5893 131.981 11.8987 131.757 12.304C131.533 12.6987 131.421 13.1733 131.421 13.728C131.421 14.272 131.533 14.7467 131.757 15.152C131.981 15.5573 132.28 15.8667 132.653 16.08C133.037 16.2933 133.469 16.4 133.949 16.4ZM140.421 18V6.128H142.421V18H140.421ZM147.686 18.112C146.972 18.112 146.284 18.0213 145.622 17.84C144.972 17.648 144.454 17.4187 144.07 17.152L144.838 15.632C145.222 15.8773 145.681 16.08 146.214 16.24C146.748 16.4 147.281 16.48 147.814 16.48C148.444 16.48 148.897 16.3947 149.174 16.224C149.462 16.0533 149.606 15.824 149.606 15.536C149.606 15.3013 149.51 15.1253 149.318 15.008C149.126 14.88 148.876 14.784 148.566 14.72C148.257 14.656 147.91 14.5973 147.526 14.544C147.153 14.4907 146.774 14.4213 146.39 14.336C146.017 14.24 145.676 14.1067 145.366 13.936C145.057 13.7547 144.806 13.5147 144.614 13.216C144.422 12.9173 144.326 12.5227 144.326 12.032C144.326 11.488 144.481 11.0187 144.79 10.624C145.1 10.2187 145.532 9.90933 146.086 9.696C146.652 9.472 147.318 9.36 148.086 9.36C148.662 9.36 149.244 9.424 149.83 9.552C150.417 9.68 150.902 9.86133 151.286 10.096L150.518 11.616C150.113 11.3707 149.702 11.2053 149.286 11.12C148.881 11.024 148.476 10.976 148.07 10.976C147.462 10.976 147.009 11.0667 146.71 11.248C146.422 11.4293 146.278 11.6587 146.278 11.936C146.278 12.192 146.374 12.384 146.566 12.512C146.758 12.64 147.009 12.7413 147.318 12.816C147.628 12.8907 147.969 12.9547 148.342 13.008C148.726 13.0507 149.105 13.12 149.478 13.216C149.852 13.312 150.193 13.4453 150.502 13.616C150.822 13.776 151.078 14.0053 151.27 14.304C151.462 14.6027 151.558 14.992 151.558 15.472C151.558 16.0053 151.398 16.4693 151.078 16.864C150.769 17.2587 150.326 17.568 149.75 17.792C149.174 18.0053 148.486 18.112 147.686 18.112Z" fill="black"/>
</svg>
